<svg xmlns="http://www.w3.org/2000/svg" xmlns:xlink="http://www.w3.org/1999/xlink" width="500" zoomAndPan="magnify" viewBox="0 0 375 374.999991" height="500" preserveAspectRatio="xMidYMid meet" version="1.0"><defs><clipPath id="23c8952b4c"><path d="M 125 179 L 146 179 L 146 199.210938 L 125 199.210938 Z M 125 179 " clip-rule="nonzero"/></clipPath><clipPath id="8caae7cf5a"><path d="M 231 179 L 251 179 L 251 199.210938 L 231 199.210938 Z M 231 179 " clip-rule="nonzero"/></clipPath><clipPath id="c7bf38587a"><path d="M 112.5 125 L 262.5 125 L 262.5 188 L 112.5 188 Z M 112.5 125 " clip-rule="nonzero"/></clipPath><clipPath id="45901de88f"><path d="M 183 106.960938 L 208 106.960938 L 208 174 L 183 174 Z M 183 106.960938 " clip-rule="nonzero"/></clipPath><clipPath id="23542ed925"><path d="M 211 106.960938 L 236 106.960938 L 236 174 L 211 174 Z M 211 106.960938 " clip-rule="nonzero"/></clipPath><clipPath id="6db49da795"><path d="M 239 106.960938 L 257 106.960938 L 257 174 L 239 174 Z M 239 106.960938 " clip-rule="nonzero"/></clipPath><clipPath id="e2805d3283"><path d="M 161 106.960938 L 180 106.960938 L 180 174 L 161 174 Z M 161 106.960938 " clip-rule="nonzero"/></clipPath><clipPath id="e7b2504f3e"><path d="M 101.660156 83.980469 L 169.910156 83.980469 L 169.910156 122.230469 L 101.660156 122.230469 Z M 101.660156 83.980469 " clip-rule="nonzero"/></clipPath><clipPath id="dc47b90dd3"><path d="M 0.660156 0.980469 L 68.441406 0.980469 L 68.441406 39.230469 L 0.660156 39.230469 Z M 0.660156 0.980469 " clip-rule="nonzero"/></clipPath><clipPath id="ff700e3c8f"><rect x="0" width="69" y="0" height="40"/></clipPath></defs><g clip-path="url(#23c8952b4c)"><path fill="#ff6d4d" d="M 135.515625 193.636719 C 133.328125 193.636719 131.558594 191.863281 131.558594 189.675781 C 131.558594 187.488281 133.328125 185.714844 135.515625 185.714844 C 137.703125 185.714844 139.476562 187.488281 139.476562 189.675781 C 139.476562 191.863281 137.703125 193.636719 135.515625 193.636719 Z M 135.515625 179.882812 C 130.109375 179.882812 125.722656 184.269531 125.722656 189.675781 C 125.722656 195.082031 130.109375 199.464844 135.515625 199.464844 C 140.925781 199.464844 145.308594 195.082031 145.308594 189.675781 C 145.308594 184.269531 140.925781 179.882812 135.515625 179.882812 " fill-opacity="1" fill-rule="nonzero"/></g><g clip-path="url(#8caae7cf5a)"><path fill="#ff6d4d" d="M 241.042969 193.636719 C 238.851562 193.636719 237.078125 191.863281 237.074219 189.675781 C 237.074219 187.492188 238.847656 185.71875 241.035156 185.714844 C 243.21875 185.714844 244.996094 187.488281 244.996094 189.671875 C 245 191.859375 243.226562 193.632812 241.042969 193.636719 Z M 241.03125 179.882812 C 235.621094 179.886719 231.242188 184.273438 231.246094 189.683594 C 231.25 195.089844 235.636719 199.46875 241.042969 199.464844 C 246.449219 199.464844 250.832031 195.078125 250.828125 189.671875 C 250.824219 184.261719 246.441406 179.882812 241.03125 179.882812 " fill-opacity="1" fill-rule="nonzero"/></g><g clip-path="url(#c7bf38587a)"><path fill="#ff6d4d" d="M 142.296875 163.109375 C 142.296875 163.730469 141.789062 164.238281 141.171875 164.238281 L 128.910156 164.238281 L 128.910156 142.066406 L 141.171875 142.066406 C 141.789062 142.066406 142.296875 142.570312 142.296875 143.191406 Z M 126.828125 164.238281 L 121.941406 164.238281 C 121.320312 164.238281 120.816406 163.730469 120.816406 163.109375 L 120.816406 154.273438 C 120.816406 153.65625 121.070312 152.714844 121.382812 152.175781 L 126.726562 143.039062 C 126.75 142.992188 126.796875 142.953125 126.828125 142.910156 Z M 257.925781 175.589844 L 158.53125 175.589844 L 158.53125 133.878906 C 158.53125 132.371094 157.296875 131.136719 155.792969 131.136719 L 152.90625 131.136719 L 152.90625 125.628906 L 150.550781 125.628906 L 150.550781 131.136719 L 130.992188 131.136719 C 129.484375 131.136719 127.632812 132.203125 126.871094 133.5 L 113.882812 155.726562 C 113.125 157.023438 112.503906 159.320312 112.503906 160.828125 L 112.503906 184.578125 C 112.503906 186.085938 113.734375 187.316406 115.242188 187.316406 L 123.417969 187.316406 C 124.519531 181.636719 129.511719 177.34375 135.515625 177.34375 C 141.519531 177.34375 146.511719 181.636719 147.617188 187.316406 L 228.9375 187.316406 C 230.039062 181.640625 235.027344 177.347656 241.03125 177.34375 C 247.03125 177.339844 252.035156 181.632812 253.132812 187.316406 L 257.925781 187.316406 C 260.4375 187.316406 262.492188 185.265625 262.492188 182.753906 L 262.492188 180.15625 C 262.492188 177.644531 260.4375 175.589844 257.925781 175.589844 " fill-opacity="1" fill-rule="nonzero"/></g><g clip-path="url(#45901de88f)"><path fill="#00bf63" d="M 183.398438 173.289062 L 207.34375 173.289062 L 207.34375 106.960938 L 183.398438 106.960938 L 183.398438 173.289062 " fill-opacity="1" fill-rule="nonzero"/></g><g clip-path="url(#23542ed925)"><path fill="#00bf63" d="M 235.246094 106.960938 L 211.296875 106.960938 L 211.296875 173.292969 L 235.246094 173.292969 L 235.246094 106.960938 " fill-opacity="1" fill-rule="nonzero"/></g><g clip-path="url(#6db49da795)"><path fill="#00bf63" d="M 247.796875 106.960938 L 239.199219 106.960938 L 239.199219 173.289062 L 247.796875 173.289062 C 252.816406 173.289062 256.925781 169.183594 256.925781 164.164062 L 256.925781 116.089844 C 256.925781 111.066406 252.816406 106.960938 247.796875 106.960938 " fill-opacity="1" fill-rule="nonzero"/></g><g clip-path="url(#e2805d3283)"><path fill="#00bf63" d="M 179.445312 106.960938 L 170.847656 106.960938 C 165.828125 106.960938 161.71875 111.066406 161.71875 116.089844 L 161.71875 164.164062 C 161.71875 169.183594 165.828125 173.289062 170.847656 173.289062 L 179.445312 173.289062 L 179.445312 106.960938 " fill-opacity="1" fill-rule="nonzero"/></g><g clip-path="url(#e7b2504f3e)"><g transform="matrix(1, 0, 0, 1, 101, 83)"><g clip-path="url(#ff700e3c8f)"><g clip-path="url(#dc47b90dd3)"><path fill="#ff6d4d" d="M 5.027344 12.730469 C 3.175781 13.472656 0.679688 13.472656 0.679688 15.507812 C 0.679688 20.320312 20.574219 23.191406 21.316406 23.191406 L 27.886719 37.535156 C 28.351562 38.648438 29 38.925781 29.738281 39.015625 L 31.871094 39.203125 L 31.871094 29.207031 L 36.035156 25.503906 C 36.496094 25.503906 39.183594 25.964844 44.734375 25.964844 C 51.210938 25.964844 52.972656 25.6875 53.433594 25.6875 L 54.171875 28.835938 C 54.265625 29.394531 55.839844 29.667969 56.117188 29.296875 L 59.449219 24.855469 C 60.097656 24.855469 61.761719 24.671875 61.761719 24.117188 C 61.761719 23.378906 61.484375 23.097656 61.117188 22.914062 L 68.148438 16.339844 C 68.609375 15.878906 66.945312 14.953125 65.464844 15.691406 L 58.617188 18.929688 L 59.078125 13.5625 L 57.503906 13.289062 C 56.949219 13.195312 55.746094 14.03125 55.375 14.398438 L 50.5625 19.582031 L 42.234375 18.007812 L 46.121094 14.03125 L 64.351562 2.550781 L 62.78125 1.347656 C 62.78125 1.347656 62.410156 0.976562 61.113281 0.976562 L 24.925781 15.046875 L 13.636719 12.917969 C 13.171875 12.824219 11.226562 11.714844 8.914062 11.714844 C 6.414062 11.714844 6.414062 12.175781 5.027344 12.730469 " fill-opacity="1" fill-rule="nonzero"/></g></g></g></g></svg>