<svg xmlns="http://www.w3.org/2000/svg" xmlns:xlink="http://www.w3.org/1999/xlink" width="500" zoomAndPan="magnify" viewBox="0 0 375 374.999991" height="500" preserveAspectRatio="xMidYMid meet" version="1.0"><defs><g/><clipPath id="422ca36c32"><path d="M 125 179 L 146 179 L 146 199.210938 L 125 199.210938 Z M 125 179 " clip-rule="nonzero"/></clipPath><clipPath id="bceb73a52c"><path d="M 231 179 L 251 179 L 251 199.210938 L 231 199.210938 Z M 231 179 " clip-rule="nonzero"/></clipPath><clipPath id="9c356f3179"><path d="M 112.5 125 L 262.5 125 L 262.5 188 L 112.5 188 Z M 112.5 125 " clip-rule="nonzero"/></clipPath><clipPath id="19b97eb15c"><path d="M 183 106.960938 L 208 106.960938 L 208 174 L 183 174 Z M 183 106.960938 " clip-rule="nonzero"/></clipPath><clipPath id="824762722d"><path d="M 211 106.960938 L 236 106.960938 L 236 174 L 211 174 Z M 211 106.960938 " clip-rule="nonzero"/></clipPath><clipPath id="18ed390398"><path d="M 239 106.960938 L 257 106.960938 L 257 174 L 239 174 Z M 239 106.960938 " clip-rule="nonzero"/></clipPath><clipPath id="30a2c18cc1"><path d="M 161 106.960938 L 180 106.960938 L 180 174 L 161 174 Z M 161 106.960938 " clip-rule="nonzero"/></clipPath><clipPath id="467fc3a0cd"><path d="M 101.660156 83.980469 L 169.910156 83.980469 L 169.910156 122.230469 L 101.660156 122.230469 Z M 101.660156 83.980469 " clip-rule="nonzero"/></clipPath><clipPath id="86a27ac3d1"><path d="M 0.660156 0.980469 L 68.441406 0.980469 L 68.441406 39.230469 L 0.660156 39.230469 Z M 0.660156 0.980469 " clip-rule="nonzero"/></clipPath><clipPath id="30c957eaea"><rect x="0" width="69" y="0" height="40"/></clipPath></defs><g clip-path="url(#422ca36c32)"><path fill="#ff6d4d" d="M 135.515625 193.636719 C 133.328125 193.636719 131.558594 191.863281 131.558594 189.675781 C 131.558594 187.488281 133.328125 185.714844 135.515625 185.714844 C 137.703125 185.714844 139.476562 187.488281 139.476562 189.675781 C 139.476562 191.863281 137.703125 193.636719 135.515625 193.636719 Z M 135.515625 179.882812 C 130.109375 179.882812 125.722656 184.269531 125.722656 189.675781 C 125.722656 195.082031 130.109375 199.464844 135.515625 199.464844 C 140.925781 199.464844 145.308594 195.082031 145.308594 189.675781 C 145.308594 184.269531 140.925781 179.882812 135.515625 179.882812 " fill-opacity="1" fill-rule="nonzero"/></g><g clip-path="url(#bceb73a52c)"><path fill="#ff6d4d" d="M 241.042969 193.636719 C 238.851562 193.636719 237.078125 191.863281 237.074219 189.675781 C 237.074219 187.492188 238.847656 185.71875 241.035156 185.714844 C 243.21875 185.714844 244.996094 187.488281 244.996094 189.671875 C 245 191.859375 243.226562 193.632812 241.042969 193.636719 Z M 241.03125 179.882812 C 235.621094 179.886719 231.242188 184.273438 231.246094 189.683594 C 231.25 195.089844 235.636719 199.46875 241.042969 199.464844 C 246.449219 199.464844 250.832031 195.078125 250.828125 189.671875 C 250.824219 184.261719 246.441406 179.882812 241.03125 179.882812 " fill-opacity="1" fill-rule="nonzero"/></g><g clip-path="url(#9c356f3179)"><path fill="#ff6d4d" d="M 142.296875 163.109375 C 142.296875 163.730469 141.789062 164.238281 141.171875 164.238281 L 128.910156 164.238281 L 128.910156 142.066406 L 141.171875 142.066406 C 141.789062 142.066406 142.296875 142.570312 142.296875 143.191406 Z M 126.828125 164.238281 L 121.941406 164.238281 C 121.320312 164.238281 120.816406 163.730469 120.816406 163.109375 L 120.816406 154.273438 C 120.816406 153.65625 121.070312 152.714844 121.382812 152.175781 L 126.726562 143.039062 C 126.75 142.992188 126.796875 142.953125 126.828125 142.910156 Z M 257.925781 175.589844 L 158.53125 175.589844 L 158.53125 133.878906 C 158.53125 132.371094 157.296875 131.136719 155.792969 131.136719 L 152.90625 131.136719 L 152.90625 125.628906 L 150.550781 125.628906 L 150.550781 131.136719 L 130.992188 131.136719 C 129.484375 131.136719 127.632812 132.203125 126.871094 133.5 L 113.882812 155.726562 C 113.125 157.023438 112.503906 159.320312 112.503906 160.828125 L 112.503906 184.578125 C 112.503906 186.085938 113.734375 187.316406 115.242188 187.316406 L 123.417969 187.316406 C 124.519531 181.636719 129.511719 177.34375 135.515625 177.34375 C 141.519531 177.34375 146.511719 181.636719 147.617188 187.316406 L 228.9375 187.316406 C 230.039062 181.640625 235.027344 177.347656 241.03125 177.34375 C 247.03125 177.339844 252.035156 181.632812 253.132812 187.316406 L 257.925781 187.316406 C 260.4375 187.316406 262.492188 185.265625 262.492188 182.753906 L 262.492188 180.15625 C 262.492188 177.644531 260.4375 175.589844 257.925781 175.589844 " fill-opacity="1" fill-rule="nonzero"/></g><g clip-path="url(#19b97eb15c)"><path fill="#00bf63" d="M 183.398438 173.289062 L 207.34375 173.289062 L 207.34375 106.960938 L 183.398438 106.960938 L 183.398438 173.289062 " fill-opacity="1" fill-rule="nonzero"/></g><g clip-path="url(#824762722d)"><path fill="#00bf63" d="M 235.246094 106.960938 L 211.296875 106.960938 L 211.296875 173.292969 L 235.246094 173.292969 L 235.246094 106.960938 " fill-opacity="1" fill-rule="nonzero"/></g><g clip-path="url(#18ed390398)"><path fill="#00bf63" d="M 247.796875 106.960938 L 239.199219 106.960938 L 239.199219 173.289062 L 247.796875 173.289062 C 252.816406 173.289062 256.925781 169.183594 256.925781 164.164062 L 256.925781 116.089844 C 256.925781 111.066406 252.816406 106.960938 247.796875 106.960938 " fill-opacity="1" fill-rule="nonzero"/></g><g clip-path="url(#30a2c18cc1)"><path fill="#00bf63" d="M 179.445312 106.960938 L 170.847656 106.960938 C 165.828125 106.960938 161.71875 111.066406 161.71875 116.089844 L 161.71875 164.164062 C 161.71875 169.183594 165.828125 173.289062 170.847656 173.289062 L 179.445312 173.289062 L 179.445312 106.960938 " fill-opacity="1" fill-rule="nonzero"/></g><g clip-path="url(#467fc3a0cd)"><g transform="matrix(1, 0, 0, 1, 101, 83)"><g clip-path="url(#30c957eaea)"><g clip-path="url(#86a27ac3d1)"><path fill="#ff6d4d" d="M 5.027344 12.730469 C 3.175781 13.472656 0.679688 13.472656 0.679688 15.507812 C 0.679688 20.320312 20.574219 23.191406 21.316406 23.191406 L 27.886719 37.535156 C 28.351562 38.648438 29 38.925781 29.738281 39.015625 L 31.871094 39.203125 L 31.871094 29.207031 L 36.035156 25.503906 C 36.496094 25.503906 39.183594 25.964844 44.734375 25.964844 C 51.210938 25.964844 52.972656 25.6875 53.433594 25.6875 L 54.171875 28.835938 C 54.265625 29.394531 55.839844 29.667969 56.117188 29.296875 L 59.449219 24.855469 C 60.097656 24.855469 61.761719 24.671875 61.761719 24.117188 C 61.761719 23.378906 61.484375 23.097656 61.117188 22.914062 L 68.148438 16.339844 C 68.609375 15.878906 66.945312 14.953125 65.464844 15.691406 L 58.617188 18.929688 L 59.078125 13.5625 L 57.503906 13.289062 C 56.949219 13.195312 55.746094 14.03125 55.375 14.398438 L 50.5625 19.582031 L 42.234375 18.007812 L 46.121094 14.03125 L 64.351562 2.550781 L 62.78125 1.347656 C 62.78125 1.347656 62.410156 0.976562 61.113281 0.976562 L 24.925781 15.046875 L 13.636719 12.917969 C 13.171875 12.824219 11.226562 11.714844 8.914062 11.714844 C 6.414062 11.714844 6.414062 12.175781 5.027344 12.730469 " fill-opacity="1" fill-rule="nonzero"/></g></g></g></g><g fill="#ff6d4d" fill-opacity="1"><g transform="translate(109.7456, 225.026191)"><g><path d="M 1.78125 -19.15625 C 1.925781 -19.15625 2.28125 -19.15625 2.84375 -19.15625 C 3.414062 -19.15625 4.070312 -19.15625 4.8125 -19.15625 C 5.5625 -19.164062 6.289062 -19.164062 7 -19.15625 C 7.707031 -19.15625 8.265625 -19.148438 8.671875 -19.140625 C 10.984375 -19.054688 12.867188 -18.601562 14.328125 -17.78125 C 15.785156 -16.957031 16.859375 -15.847656 17.546875 -14.453125 C 18.242188 -13.054688 18.59375 -11.453125 18.59375 -9.640625 C 18.59375 -7.773438 18.234375 -6.113281 17.515625 -4.65625 C 16.796875 -3.207031 15.703125 -2.066406 14.234375 -1.234375 C 12.773438 -0.410156 10.914062 0 8.65625 0 L 1.78125 0 Z M 6.9375 -15.109375 L 6.9375 -4.046875 L 8.8125 -4.046875 C 9.46875 -4.046875 10.128906 -4.226562 10.796875 -4.59375 C 11.472656 -4.96875 12.039062 -5.566406 12.5 -6.390625 C 12.96875 -7.222656 13.203125 -8.332031 13.203125 -9.71875 C 13.203125 -10.894531 13.019531 -11.882812 12.65625 -12.6875 C 12.289062 -13.488281 11.773438 -14.09375 11.109375 -14.5 C 10.453125 -14.90625 9.6875 -15.109375 8.8125 -15.109375 Z M 6.9375 -15.109375 "/></g></g></g><g fill="#ff6d4d" fill-opacity="1"><g transform="translate(129.458573, 225.026191)"><g><path d="M 1.78125 0 L 1.78125 -19.15625 L 15.9375 -19.15625 L 15.90625 -14.890625 L 6.984375 -14.890625 L 6.984375 -11.71875 L 14.453125 -11.71875 L 14.453125 -7.546875 L 6.9375 -7.546875 L 6.9375 -4.296875 L 15.96875 -4.296875 L 15.96875 0 Z M 1.78125 0 "/></g></g></g><g fill="#ff6d4d" fill-opacity="1"><g transform="translate(146.614685, 225.026191)"><g><path d="M 1.78125 0 L 1.78125 -19.15625 L 9.453125 -19.15625 L 12.546875 -7.46875 L 15.671875 -19.15625 L 23.3125 -19.15625 L 23.3125 0 L 18.140625 0 L 18.140625 -13.890625 L 14.40625 0 L 10.6875 0 L 6.9375 -13.890625 L 6.9375 0 Z M 1.78125 0 "/></g></g></g><g fill="#ff6d4d" fill-opacity="1"><g transform="translate(171.706335, 225.026191)"><g><path d="M 10.421875 0.265625 C 8.523438 0.265625 6.878906 -0.132812 5.484375 -0.9375 C 4.097656 -1.75 3.023438 -2.890625 2.265625 -4.359375 C 1.503906 -5.828125 1.125 -7.554688 1.125 -9.546875 C 1.125 -11.535156 1.507812 -13.269531 2.28125 -14.75 C 3.050781 -16.226562 4.132812 -17.375 5.53125 -18.1875 C 6.925781 -19.007812 8.554688 -19.421875 10.421875 -19.421875 C 12.273438 -19.421875 13.894531 -19.007812 15.28125 -18.1875 C 16.675781 -17.375 17.753906 -16.226562 18.515625 -14.75 C 19.285156 -13.269531 19.671875 -11.535156 19.671875 -9.546875 C 19.671875 -7.566406 19.289062 -5.835938 18.53125 -4.359375 C 17.78125 -2.890625 16.710938 -1.75 15.328125 -0.9375 C 13.941406 -0.132812 12.304688 0.265625 10.421875 0.265625 Z M 10.421875 -3.875 C 11.128906 -3.875 11.757812 -4.050781 12.3125 -4.40625 C 12.863281 -4.757812 13.296875 -5.34375 13.609375 -6.15625 C 13.921875 -6.976562 14.078125 -8.078125 14.078125 -9.453125 C 14.078125 -10.878906 13.921875 -12.019531 13.609375 -12.875 C 13.296875 -13.726562 12.863281 -14.34375 12.3125 -14.71875 C 11.757812 -15.101562 11.128906 -15.296875 10.421875 -15.296875 C 9.722656 -15.296875 9.097656 -15.101562 8.546875 -14.71875 C 7.992188 -14.34375 7.554688 -13.726562 7.234375 -12.875 C 6.910156 -12.019531 6.75 -10.878906 6.75 -9.453125 C 6.75 -8.078125 6.910156 -6.976562 7.234375 -6.15625 C 7.554688 -5.34375 7.992188 -4.757812 8.546875 -4.40625 C 9.097656 -4.050781 9.722656 -3.875 10.421875 -3.875 Z M 10.421875 -3.875 "/></g></g></g><g fill="#ff6d4d" fill-opacity="1"><g transform="translate(192.505639, 225.026191)"><g><path d="M 17.71875 0 L 12.421875 0 L 9.640625 -6.59375 L 6.9375 -6.59375 L 6.9375 0 L 1.78125 0 L 1.78125 -19.15625 L 10.484375 -19.15625 C 12.140625 -19.15625 13.472656 -18.878906 14.484375 -18.328125 C 15.492188 -17.785156 16.226562 -17.046875 16.6875 -16.109375 C 17.15625 -15.179688 17.390625 -14.140625 17.390625 -12.984375 C 17.390625 -12.003906 17.257812 -11.164062 17 -10.46875 C 16.738281 -9.78125 16.378906 -9.191406 15.921875 -8.703125 C 15.460938 -8.210938 14.9375 -7.785156 14.34375 -7.421875 Z M 9.890625 -10.4375 C 10.554688 -10.4375 11.109375 -10.695312 11.546875 -11.21875 C 11.984375 -11.738281 12.203125 -12.3125 12.203125 -12.9375 C 12.203125 -13.59375 11.960938 -14.15625 11.484375 -14.625 C 11.003906 -15.101562 10.472656 -15.34375 9.890625 -15.34375 L 6.9375 -15.34375 L 6.9375 -10.4375 Z M 9.890625 -10.4375 "/></g></g></g><g fill="#ff6d4d" fill-opacity="1"><g transform="translate(211.410488, 225.026191)"><g><path d="M 10.1875 0.265625 C 8.363281 0.265625 6.769531 -0.144531 5.40625 -0.96875 C 4.050781 -1.800781 3 -2.953125 2.25 -4.421875 C 1.5 -5.890625 1.125 -7.585938 1.125 -9.515625 C 1.125 -11.503906 1.523438 -13.238281 2.328125 -14.71875 C 3.128906 -16.207031 4.234375 -17.363281 5.640625 -18.1875 C 7.046875 -19.007812 8.664062 -19.421875 10.5 -19.421875 C 11.789062 -19.421875 12.945312 -19.226562 13.96875 -18.84375 C 15 -18.457031 15.878906 -17.929688 16.609375 -17.265625 C 17.335938 -16.597656 17.894531 -15.84375 18.28125 -15 C 18.675781 -14.15625 18.878906 -13.289062 18.890625 -12.40625 L 13.5 -12.40625 C 13.382812 -12.925781 13.195312 -13.390625 12.9375 -13.796875 C 12.675781 -14.210938 12.332031 -14.539062 11.90625 -14.78125 C 11.488281 -15.03125 10.976562 -15.15625 10.375 -15.15625 C 9.75 -15.15625 9.160156 -14.984375 8.609375 -14.640625 C 8.054688 -14.304688 7.609375 -13.738281 7.265625 -12.9375 C 6.921875 -12.132812 6.75 -11.046875 6.75 -9.671875 C 6.75 -8.492188 6.867188 -7.546875 7.109375 -6.828125 C 7.359375 -6.109375 7.675781 -5.554688 8.0625 -5.171875 C 8.445312 -4.796875 8.863281 -4.539062 9.3125 -4.40625 C 9.757812 -4.28125 10.1875 -4.21875 10.59375 -4.21875 C 10.957031 -4.21875 11.296875 -4.269531 11.609375 -4.375 C 11.921875 -4.476562 12.191406 -4.613281 12.421875 -4.78125 C 12.660156 -4.957031 12.863281 -5.148438 13.03125 -5.359375 C 13.195312 -5.578125 13.3125 -5.796875 13.375 -6.015625 L 13.609375 -6.703125 L 10.265625 -6.703125 L 10.265625 -10.171875 L 19.046875 -10.125 L 19.046875 0 L 15.65625 0 L 15.65625 -2.125 C 15.34375 -1.789062 14.960938 -1.4375 14.515625 -1.0625 C 14.066406 -0.695312 13.5 -0.382812 12.8125 -0.125 C 12.125 0.132812 11.25 0.265625 10.1875 0.265625 Z M 10.1875 0.265625 "/></g></g></g><g fill="#ff6d4d" fill-opacity="1"><g transform="translate(232.143554, 225.026191)"><g><path d="M 1.78125 -19.15625 L 6.9375 -19.15625 L 6.9375 0 L 1.78125 0 Z M 1.78125 -19.15625 "/></g></g></g><g fill="#ff6d4d" fill-opacity="1"><g transform="translate(240.873965, 225.026191)"><g><path d="M 0.390625 0 L 7.1875 -19.15625 L 12.453125 -19.15625 L 19.234375 0 L 14.15625 0 L 12.875 -3.703125 L 6.84375 -3.703125 L 5.53125 0 Z M 7.921875 -8.109375 L 11.71875 -8.109375 L 9.828125 -14.234375 Z M 7.921875 -8.109375 "/></g></g></g><g fill="#ff6d4d" fill-opacity="1"><g transform="translate(113.131674, 243.110653)"><g><path d="M 0.546875 0 L 4.046875 -9.640625 L 5.4375 -9.640625 L 8.921875 0 L 7.671875 0 L 6.71875 -2.640625 L 2.78125 -2.640625 L 1.8125 0 Z M 3.09375 -3.78125 L 6.390625 -3.78125 L 4.75 -8.421875 Z M 3.09375 -3.78125 "/></g></g></g><g fill="#ff6d4d" fill-opacity="1"><g transform="translate(122.608572, 243.110653)"><g><path d="M 8.578125 -9.640625 L 5.15625 0 L 3.671875 0 L 0.3125 -9.640625 L 1.53125 -9.640625 L 4.421875 -1.40625 L 7.359375 -9.640625 Z M 8.578125 -9.640625 "/></g></g></g><g fill="#ff6d4d" fill-opacity="1"><g transform="translate(131.49817, 243.110653)"><g><path d="M 1.28125 -9.640625 L 2.515625 -9.640625 L 2.515625 0 L 1.28125 0 Z M 1.28125 -9.640625 "/></g></g></g><g fill="#ff6d4d" fill-opacity="1"><g transform="translate(135.275579, 243.110653)"><g><path d="M 0.546875 0 L 4.046875 -9.640625 L 5.4375 -9.640625 L 8.921875 0 L 7.671875 0 L 6.71875 -2.640625 L 2.78125 -2.640625 L 1.8125 0 Z M 3.09375 -3.78125 L 6.390625 -3.78125 L 4.75 -8.421875 Z M 3.09375 -3.78125 "/></g></g></g><g fill="#ff6d4d" fill-opacity="1"><g transform="translate(144.752476, 243.110653)"><g><path d="M 0.3125 -8.515625 L 0.3125 -9.640625 L 7.609375 -9.640625 L 7.609375 -8.515625 L 4.65625 -8.515625 L 4.65625 0 L 3.421875 0 L 3.421875 -8.515625 Z M 0.3125 -8.515625 "/></g></g></g><g fill="#ff6d4d" fill-opacity="1"><g transform="translate(152.674362, 243.110653)"><g><path d="M 1.28125 -9.640625 L 2.515625 -9.640625 L 2.515625 0 L 1.28125 0 Z M 1.28125 -9.640625 "/></g></g></g><g fill="#ff6d4d" fill-opacity="1"><g transform="translate(156.451771, 243.110653)"><g><path d="M 4.90625 0.140625 C 4.050781 0.140625 3.304688 -0.0507812 2.671875 -0.4375 C 2.046875 -0.832031 1.5625 -1.394531 1.21875 -2.125 C 0.882812 -2.863281 0.71875 -3.753906 0.71875 -4.796875 C 0.71875 -5.859375 0.890625 -6.757812 1.234375 -7.5 C 1.578125 -8.238281 2.0625 -8.800781 2.6875 -9.1875 C 3.320312 -9.582031 4.0625 -9.78125 4.90625 -9.78125 C 5.757812 -9.78125 6.5 -9.582031 7.125 -9.1875 C 7.75 -8.800781 8.226562 -8.238281 8.5625 -7.5 C 8.90625 -6.757812 9.078125 -5.859375 9.078125 -4.796875 C 9.078125 -3.753906 8.90625 -2.863281 8.5625 -2.125 C 8.226562 -1.394531 7.75 -0.832031 7.125 -0.4375 C 6.507812 -0.0507812 5.769531 0.140625 4.90625 0.140625 Z M 4.90625 -0.9375 C 5.5 -0.9375 6.003906 -1.070312 6.421875 -1.34375 C 6.847656 -1.613281 7.171875 -2.035156 7.390625 -2.609375 C 7.609375 -3.179688 7.71875 -3.910156 7.71875 -4.796875 C 7.71875 -5.691406 7.601562 -6.425781 7.375 -7 C 7.15625 -7.582031 6.835938 -8.007812 6.421875 -8.28125 C 6.003906 -8.5625 5.5 -8.703125 4.90625 -8.703125 C 4.320312 -8.703125 3.816406 -8.5625 3.390625 -8.28125 C 2.972656 -8 2.648438 -7.566406 2.421875 -6.984375 C 2.191406 -6.410156 2.078125 -5.679688 2.078125 -4.796875 C 2.078125 -3.910156 2.191406 -3.179688 2.421875 -2.609375 C 2.648438 -2.035156 2.972656 -1.613281 3.390625 -1.34375 C 3.816406 -1.070312 4.320312 -0.9375 4.90625 -0.9375 Z M 4.90625 -0.9375 "/></g></g></g><g fill="#ff6d4d" fill-opacity="1"><g transform="translate(166.249011, 243.110653)"><g><path d="M 7.546875 -9.640625 L 8.78125 -9.640625 L 8.78125 0 L 7.6875 0 L 2.515625 -7.609375 L 2.515625 0 L 1.28125 0 L 1.28125 -9.640625 L 2.453125 -9.640625 L 7.546875 -2.140625 Z M 7.546875 -9.640625 "/></g></g></g><g fill="#ff6d4d" fill-opacity="1"><g transform="translate(176.313208, 243.110653)"><g/></g></g><g fill="#ff6d4d" fill-opacity="1"><g transform="translate(179.38986, 243.110653)"><g><path d="M 4.15625 -9.796875 C 4.625 -9.796875 5.054688 -9.707031 5.453125 -9.53125 C 5.859375 -9.363281 6.179688 -9.125 6.421875 -8.8125 C 6.671875 -8.507812 6.796875 -8.148438 6.796875 -7.734375 C 6.796875 -7.566406 6.757812 -7.382812 6.6875 -7.1875 C 6.625 -6.988281 6.507812 -6.773438 6.34375 -6.546875 C 6.175781 -6.328125 5.941406 -6.09375 5.640625 -5.84375 C 5.347656 -5.601562 4.972656 -5.363281 4.515625 -5.125 L 6.625 -2.65625 C 6.71875 -2.769531 6.820312 -2.945312 6.9375 -3.1875 C 7.0625 -3.4375 7.175781 -3.726562 7.28125 -4.0625 C 7.394531 -4.394531 7.460938 -4.773438 7.484375 -5.203125 L 8.6875 -5.203125 C 8.625 -4.742188 8.519531 -4.320312 8.375 -3.9375 C 8.226562 -3.550781 8.054688 -3.191406 7.859375 -2.859375 C 7.660156 -2.523438 7.457031 -2.207031 7.25 -1.90625 L 8.875 0 L 7.4375 0 L 6.5 -1.078125 C 6.007812 -0.671875 5.507812 -0.378906 5 -0.203125 C 4.488281 -0.0234375 3.984375 0.0625 3.484375 0.0625 C 2.859375 0.0625 2.328125 -0.0390625 1.890625 -0.25 C 1.460938 -0.457031 1.132812 -0.75 0.90625 -1.125 C 0.6875 -1.5 0.578125 -1.929688 0.578125 -2.421875 C 0.578125 -2.847656 0.660156 -3.226562 0.828125 -3.5625 C 0.992188 -3.90625 1.25 -4.21875 1.59375 -4.5 C 1.9375 -4.789062 2.363281 -5.070312 2.875 -5.34375 C 2.625 -5.613281 2.40625 -5.867188 2.21875 -6.109375 C 2.039062 -6.359375 1.90625 -6.609375 1.8125 -6.859375 C 1.71875 -7.117188 1.671875 -7.390625 1.671875 -7.671875 C 1.671875 -8.066406 1.773438 -8.425781 1.984375 -8.75 C 2.191406 -9.070312 2.484375 -9.328125 2.859375 -9.515625 C 3.234375 -9.703125 3.664062 -9.796875 4.15625 -9.796875 Z M 4.203125 -8.953125 C 3.773438 -8.941406 3.453125 -8.816406 3.234375 -8.578125 C 3.015625 -8.335938 2.90625 -8.0625 2.90625 -7.75 C 2.90625 -7.53125 2.953125 -7.3125 3.046875 -7.09375 C 3.140625 -6.875 3.25 -6.675781 3.375 -6.5 C 3.507812 -6.320312 3.628906 -6.179688 3.734375 -6.078125 L 3.96875 -5.8125 C 4.425781 -6.082031 4.773438 -6.320312 5.015625 -6.53125 C 5.265625 -6.75 5.4375 -6.953125 5.53125 -7.140625 C 5.625 -7.328125 5.671875 -7.519531 5.671875 -7.71875 C 5.671875 -8.007812 5.597656 -8.242188 5.453125 -8.421875 C 5.304688 -8.609375 5.117188 -8.742188 4.890625 -8.828125 C 4.671875 -8.910156 4.441406 -8.953125 4.203125 -8.953125 Z M 3.5 -4.609375 C 3.03125 -4.347656 2.644531 -4.035156 2.34375 -3.671875 C 2.050781 -3.316406 1.914062 -2.910156 1.9375 -2.453125 C 1.957031 -2.140625 2.050781 -1.867188 2.21875 -1.640625 C 2.382812 -1.410156 2.601562 -1.234375 2.875 -1.109375 C 3.144531 -0.984375 3.4375 -0.921875 3.75 -0.921875 C 4.125 -0.921875 4.5 -1.003906 4.875 -1.171875 C 5.257812 -1.335938 5.59375 -1.554688 5.875 -1.828125 Z M 3.5 -4.609375 "/></g></g></g><g fill="#ff6d4d" fill-opacity="1"><g transform="translate(188.846742, 243.110653)"><g/></g></g><g fill="#ff6d4d" fill-opacity="1"><g transform="translate(191.923395, 243.110653)"><g><path d="M 1.28125 -9.640625 L 2.546875 -9.640625 L 2.546875 -1.109375 L 7.09375 -1.109375 L 7.09375 0 L 1.28125 0 Z M 1.28125 -9.640625 "/></g></g></g><g fill="#ff6d4d" fill-opacity="1"><g transform="translate(199.631722, 243.110653)"><g><path d="M 4.90625 0.140625 C 4.050781 0.140625 3.304688 -0.0507812 2.671875 -0.4375 C 2.046875 -0.832031 1.5625 -1.394531 1.21875 -2.125 C 0.882812 -2.863281 0.71875 -3.753906 0.71875 -4.796875 C 0.71875 -5.859375 0.890625 -6.757812 1.234375 -7.5 C 1.578125 -8.238281 2.0625 -8.800781 2.6875 -9.1875 C 3.320312 -9.582031 4.0625 -9.78125 4.90625 -9.78125 C 5.757812 -9.78125 6.5 -9.582031 7.125 -9.1875 C 7.75 -8.800781 8.226562 -8.238281 8.5625 -7.5 C 8.90625 -6.757812 9.078125 -5.859375 9.078125 -4.796875 C 9.078125 -3.753906 8.90625 -2.863281 8.5625 -2.125 C 8.226562 -1.394531 7.75 -0.832031 7.125 -0.4375 C 6.507812 -0.0507812 5.769531 0.140625 4.90625 0.140625 Z M 4.90625 -0.9375 C 5.5 -0.9375 6.003906 -1.070312 6.421875 -1.34375 C 6.847656 -1.613281 7.171875 -2.035156 7.390625 -2.609375 C 7.609375 -3.179688 7.71875 -3.910156 7.71875 -4.796875 C 7.71875 -5.691406 7.601562 -6.425781 7.375 -7 C 7.15625 -7.582031 6.835938 -8.007812 6.421875 -8.28125 C 6.003906 -8.5625 5.5 -8.703125 4.90625 -8.703125 C 4.320312 -8.703125 3.816406 -8.5625 3.390625 -8.28125 C 2.972656 -8 2.648438 -7.566406 2.421875 -6.984375 C 2.191406 -6.410156 2.078125 -5.679688 2.078125 -4.796875 C 2.078125 -3.910156 2.191406 -3.179688 2.421875 -2.609375 C 2.648438 -2.035156 2.972656 -1.613281 3.390625 -1.34375 C 3.816406 -1.070312 4.320312 -0.9375 4.90625 -0.9375 Z M 4.90625 -0.9375 "/></g></g></g><g fill="#ff6d4d" fill-opacity="1"><g transform="translate(209.428963, 243.110653)"><g><path d="M 4.8125 0.140625 C 3.96875 0.140625 3.238281 -0.0507812 2.625 -0.4375 C 2.007812 -0.832031 1.535156 -1.394531 1.203125 -2.125 C 0.878906 -2.863281 0.71875 -3.753906 0.71875 -4.796875 C 0.71875 -5.847656 0.882812 -6.742188 1.21875 -7.484375 C 1.5625 -8.222656 2.039062 -8.789062 2.65625 -9.1875 C 3.28125 -9.582031 4.019531 -9.78125 4.875 -9.78125 C 5.351562 -9.78125 5.804688 -9.695312 6.234375 -9.53125 C 6.660156 -9.363281 7.035156 -9.132812 7.359375 -8.84375 C 7.691406 -8.550781 7.957031 -8.21875 8.15625 -7.84375 C 8.351562 -7.46875 8.46875 -7.078125 8.5 -6.671875 L 7.171875 -6.671875 C 7.109375 -7.023438 6.96875 -7.351562 6.75 -7.65625 C 6.539062 -7.96875 6.273438 -8.21875 5.953125 -8.40625 C 5.628906 -8.59375 5.257812 -8.6875 4.84375 -8.6875 C 4.289062 -8.6875 3.800781 -8.546875 3.375 -8.265625 C 2.957031 -7.992188 2.632812 -7.570312 2.40625 -7 C 2.175781 -6.4375 2.0625 -5.710938 2.0625 -4.828125 C 2.0625 -4.140625 2.128906 -3.550781 2.265625 -3.0625 C 2.410156 -2.570312 2.609375 -2.175781 2.859375 -1.875 C 3.117188 -1.570312 3.421875 -1.347656 3.765625 -1.203125 C 4.109375 -1.054688 4.484375 -0.984375 4.890625 -0.984375 C 5.285156 -0.984375 5.632812 -1.050781 5.9375 -1.1875 C 6.238281 -1.332031 6.488281 -1.515625 6.6875 -1.734375 C 6.882812 -1.960938 7.035156 -2.207031 7.140625 -2.46875 C 7.253906 -2.726562 7.316406 -2.976562 7.328125 -3.21875 L 7.375 -4.078125 L 5.03125 -4.078125 L 5.03125 -4.984375 L 8.65625 -4.984375 L 8.65625 0 L 7.71875 0 L 7.71875 -1.46875 C 7.550781 -1.1875 7.335938 -0.921875 7.078125 -0.671875 C 6.828125 -0.429688 6.515625 -0.234375 6.140625 -0.078125 C 5.765625 0.0664062 5.320312 0.140625 4.8125 0.140625 Z M 4.8125 0.140625 "/></g></g></g><g fill="#ff6d4d" fill-opacity="1"><g transform="translate(219.21286, 243.110653)"><g><path d="M 1.28125 -9.640625 L 2.515625 -9.640625 L 2.515625 0 L 1.28125 0 Z M 1.28125 -9.640625 "/></g></g></g><g fill="#ff6d4d" fill-opacity="1"><g transform="translate(222.990268, 243.110653)"><g><path d="M 4.546875 0.140625 C 4.097656 0.140625 3.660156 0.0820312 3.234375 -0.03125 C 2.804688 -0.144531 2.414062 -0.316406 2.0625 -0.546875 C 1.71875 -0.773438 1.429688 -1.054688 1.203125 -1.390625 C 0.972656 -1.722656 0.832031 -2.113281 0.78125 -2.5625 L 2.0625 -2.5625 C 2.144531 -2.195312 2.304688 -1.890625 2.546875 -1.640625 C 2.785156 -1.390625 3.078125 -1.203125 3.421875 -1.078125 C 3.765625 -0.953125 4.140625 -0.890625 4.546875 -0.890625 C 4.992188 -0.890625 5.394531 -0.953125 5.75 -1.078125 C 6.113281 -1.210938 6.398438 -1.394531 6.609375 -1.625 C 6.816406 -1.863281 6.921875 -2.144531 6.921875 -2.46875 C 6.921875 -2.757812 6.851562 -3.007812 6.71875 -3.21875 C 6.59375 -3.4375 6.40625 -3.613281 6.15625 -3.75 C 5.90625 -3.894531 5.601562 -4.007812 5.25 -4.09375 L 3.34375 -4.53125 C 2.632812 -4.6875 2.078125 -4.960938 1.671875 -5.359375 C 1.273438 -5.765625 1.070312 -6.296875 1.0625 -6.953125 C 1.0625 -7.515625 1.207031 -8.003906 1.5 -8.421875 C 1.800781 -8.847656 2.207031 -9.175781 2.71875 -9.40625 C 3.238281 -9.644531 3.832031 -9.765625 4.5 -9.765625 C 5.269531 -9.765625 5.914062 -9.632812 6.4375 -9.375 C 6.96875 -9.113281 7.363281 -8.769531 7.625 -8.34375 C 7.894531 -7.914062 8.035156 -7.457031 8.046875 -6.96875 L 6.765625 -6.96875 C 6.722656 -7.40625 6.59375 -7.75 6.375 -8 C 6.164062 -8.257812 5.894531 -8.441406 5.5625 -8.546875 C 5.238281 -8.660156 4.890625 -8.71875 4.515625 -8.71875 C 4.234375 -8.71875 3.960938 -8.679688 3.703125 -8.609375 C 3.453125 -8.546875 3.222656 -8.441406 3.015625 -8.296875 C 2.816406 -8.160156 2.65625 -7.988281 2.53125 -7.78125 C 2.414062 -7.582031 2.359375 -7.347656 2.359375 -7.078125 C 2.359375 -6.734375 2.476562 -6.453125 2.71875 -6.234375 C 2.957031 -6.015625 3.390625 -5.828125 4.015625 -5.671875 L 5.84375 -5.234375 C 6.332031 -5.128906 6.726562 -4.976562 7.03125 -4.78125 C 7.332031 -4.582031 7.566406 -4.351562 7.734375 -4.09375 C 7.898438 -3.84375 8.015625 -3.578125 8.078125 -3.296875 C 8.148438 -3.023438 8.1875 -2.753906 8.1875 -2.484375 C 8.1875 -2.003906 8.039062 -1.5625 7.75 -1.15625 C 7.457031 -0.757812 7.039062 -0.441406 6.5 -0.203125 C 5.957031 0.0234375 5.304688 0.140625 4.546875 0.140625 Z M 4.546875 0.140625 "/></g></g></g><g fill="#ff6d4d" fill-opacity="1"><g transform="translate(231.979979, 243.110653)"><g><path d="M 0.3125 -8.515625 L 0.3125 -9.640625 L 7.609375 -9.640625 L 7.609375 -8.515625 L 4.65625 -8.515625 L 4.65625 0 L 3.421875 0 L 3.421875 -8.515625 Z M 0.3125 -8.515625 "/></g></g></g><g fill="#ff6d4d" fill-opacity="1"><g transform="translate(239.901865, 243.110653)"><g><path d="M 1.28125 -9.640625 L 2.515625 -9.640625 L 2.515625 0 L 1.28125 0 Z M 1.28125 -9.640625 "/></g></g></g><g fill="#ff6d4d" fill-opacity="1"><g transform="translate(243.679273, 243.110653)"><g><path d="M 4.828125 -9.78125 C 5.503906 -9.78125 6.101562 -9.640625 6.625 -9.359375 C 7.15625 -9.078125 7.578125 -8.695312 7.890625 -8.21875 C 8.210938 -7.75 8.40625 -7.234375 8.46875 -6.671875 L 7.15625 -6.671875 C 7.082031 -7.046875 6.941406 -7.382812 6.734375 -7.6875 C 6.535156 -8 6.273438 -8.242188 5.953125 -8.421875 C 5.628906 -8.609375 5.242188 -8.703125 4.796875 -8.703125 C 4.210938 -8.703125 3.71875 -8.566406 3.3125 -8.296875 C 2.90625 -8.023438 2.597656 -7.601562 2.390625 -7.03125 C 2.191406 -6.457031 2.09375 -5.726562 2.09375 -4.84375 C 2.09375 -3.5 2.320312 -2.507812 2.78125 -1.875 C 3.238281 -1.25 3.910156 -0.9375 4.796875 -0.9375 C 5.242188 -0.9375 5.628906 -1.03125 5.953125 -1.21875 C 6.273438 -1.414062 6.535156 -1.671875 6.734375 -1.984375 C 6.941406 -2.304688 7.082031 -2.65625 7.15625 -3.03125 L 8.46875 -3.03125 C 8.414062 -2.625 8.300781 -2.226562 8.125 -1.84375 C 7.957031 -1.46875 7.722656 -1.128906 7.421875 -0.828125 C 7.128906 -0.535156 6.765625 -0.300781 6.328125 -0.125 C 5.898438 0.0507812 5.398438 0.140625 4.828125 0.140625 C 3.953125 0.140625 3.207031 -0.0546875 2.59375 -0.453125 C 1.988281 -0.847656 1.523438 -1.414062 1.203125 -2.15625 C 0.878906 -2.90625 0.71875 -3.804688 0.71875 -4.859375 C 0.71875 -5.898438 0.878906 -6.785156 1.203125 -7.515625 C 1.523438 -8.253906 1.988281 -8.816406 2.59375 -9.203125 C 3.207031 -9.585938 3.953125 -9.78125 4.828125 -9.78125 Z M 4.828125 -9.78125 "/></g></g></g><g fill="#ff6d4d" fill-opacity="1"><g transform="translate(252.869199, 243.110653)"><g><path d="M 4.546875 0.140625 C 4.097656 0.140625 3.660156 0.0820312 3.234375 -0.03125 C 2.804688 -0.144531 2.414062 -0.316406 2.0625 -0.546875 C 1.71875 -0.773438 1.429688 -1.054688 1.203125 -1.390625 C 0.972656 -1.722656 0.832031 -2.113281 0.78125 -2.5625 L 2.0625 -2.5625 C 2.144531 -2.195312 2.304688 -1.890625 2.546875 -1.640625 C 2.785156 -1.390625 3.078125 -1.203125 3.421875 -1.078125 C 3.765625 -0.953125 4.140625 -0.890625 4.546875 -0.890625 C 4.992188 -0.890625 5.394531 -0.953125 5.75 -1.078125 C 6.113281 -1.210938 6.398438 -1.394531 6.609375 -1.625 C 6.816406 -1.863281 6.921875 -2.144531 6.921875 -2.46875 C 6.921875 -2.757812 6.851562 -3.007812 6.71875 -3.21875 C 6.59375 -3.4375 6.40625 -3.613281 6.15625 -3.75 C 5.90625 -3.894531 5.601562 -4.007812 5.25 -4.09375 L 3.34375 -4.53125 C 2.632812 -4.6875 2.078125 -4.960938 1.671875 -5.359375 C 1.273438 -5.765625 1.070312 -6.296875 1.0625 -6.953125 C 1.0625 -7.515625 1.207031 -8.003906 1.5 -8.421875 C 1.800781 -8.847656 2.207031 -9.175781 2.71875 -9.40625 C 3.238281 -9.644531 3.832031 -9.765625 4.5 -9.765625 C 5.269531 -9.765625 5.914062 -9.632812 6.4375 -9.375 C 6.96875 -9.113281 7.363281 -8.769531 7.625 -8.34375 C 7.894531 -7.914062 8.035156 -7.457031 8.046875 -6.96875 L 6.765625 -6.96875 C 6.722656 -7.40625 6.59375 -7.75 6.375 -8 C 6.164062 -8.257812 5.894531 -8.441406 5.5625 -8.546875 C 5.238281 -8.660156 4.890625 -8.71875 4.515625 -8.71875 C 4.234375 -8.71875 3.960938 -8.679688 3.703125 -8.609375 C 3.453125 -8.546875 3.222656 -8.441406 3.015625 -8.296875 C 2.816406 -8.160156 2.65625 -7.988281 2.53125 -7.78125 C 2.414062 -7.582031 2.359375 -7.347656 2.359375 -7.078125 C 2.359375 -6.734375 2.476562 -6.453125 2.71875 -6.234375 C 2.957031 -6.015625 3.390625 -5.828125 4.015625 -5.671875 L 5.84375 -5.234375 C 6.332031 -5.128906 6.726562 -4.976562 7.03125 -4.78125 C 7.332031 -4.582031 7.566406 -4.351562 7.734375 -4.09375 C 7.898438 -3.84375 8.015625 -3.578125 8.078125 -3.296875 C 8.148438 -3.023438 8.1875 -2.753906 8.1875 -2.484375 C 8.1875 -2.003906 8.039062 -1.5625 7.75 -1.15625 C 7.457031 -0.757812 7.039062 -0.441406 6.5 -0.203125 C 5.957031 0.0234375 5.304688 0.140625 4.546875 0.140625 Z M 4.546875 0.140625 "/></g></g></g></svg>